<?xml version="1.0" encoding="UTF-8" standalone="no"?>
<svg
   xmlns:dc="http://purl.org/dc/elements/1.1/"
   xmlns:cc="http://creativecommons.org/ns#"
   xmlns:rdf="http://www.w3.org/1999/02/22-rdf-syntax-ns#"
   xmlns:svg="http://www.w3.org/2000/svg"
   xmlns="http://www.w3.org/2000/svg"
   width="525mm"
   height="125mm"
   viewBox="0 0 525 125"
   version="1.1"
   id="svg8">
  <defs
     id="defs2" />
  <metadata
     id="metadata5">
    <rdf:RDF>
      <cc:Work
         rdf:about="">
        <dc:format>image/svg+xml</dc:format>
        <dc:type
           rdf:resource="http://purl.org/dc/dcmitype/StillImage" />
        <dc:title></dc:title>
        <cc:license
           rdf:resource="https://www.gnu.org/licenses/gpl-3.0.html" />
      </cc:Work>
    </rdf:RDF>
  </metadata>
  <g
     id="layer1">
    <path
       fill="#000000" 
       d="M 96.278219,111.58688 C 90.023165,110.19746 84.218714,106.61321 79.884945,101.46402 75.298295,96.014372 73.1842,90.751982 72.894056,84.062362 c -0.387102,-8.92508 2.485009,-15.99886 9.078454,-22.35953 5.604958,-5.40708 12.741402,-8.17221 21.09106,-8.17207 7.40709,1.2e-4 14.18578,2.79298 19.74017,8.13305 l 2.13577,2.05336 -19.44728,19.15977 c -10.696006,10.53787 -19.447282,19.246178 -19.447282,19.351808 0,0.36698 4.798301,3.47585 6.772542,4.38801 3.045849,1.40727 5.604754,1.98056 8.83787,1.98002 7.37556,-10e-4 13.38442,-2.4703 18.75292,-7.70565 1.41762,-1.382448 2.95109,-2.989788 3.40773,-3.571868 l 0.83025,-1.05834 0.0139,3.07522 0.0139,3.075218 -1.95077,1.85304 c -3.51002,3.33417 -7.96964,5.85132 -12.34825,6.96972 -2.98683,0.76291 -11.312486,0.97125 -14.096873,0.35276 z m 15.266851,-40.016608 7.90532,-7.92432 -1.55532,-1.23716 c -2.06919,-1.6459 -6.83766,-3.9682 -9.62512,-4.68755 -1.84284,-0.47557 -2.98953,-0.58048 -6.35,-0.58094 -3.714659,-5.3e-4 -4.325394,0.0677 -6.482294,0.72405 -7.014218,2.13443 -13.339386,7.68341 -16.520496,14.49318 -1.71636,3.6742 -1.990873,5.0523 -1.994516,10.01277 -0.0028,3.78805 0.07966,4.66316 0.623176,6.61458 0.80691,2.89712 2.579118,6.53429 4.289742,8.80399 l 1.350992,1.79254 10.226593,-10.0434 c 5.624626,-5.52388 13.783993,-13.60936 18.131923,-17.96774 z m 315.8504,39.893138 c -5.05002,-1.09485 -8.27799,-2.88946 -12.07947,-6.71568 -4.3194,-4.34751 -6.41133,-8.830678 -6.98667,-14.972948 -0.16624,-1.77461 -0.28503,-9.67081 -0.28556,-18.98 v -15.94115 h 1.96773 1.96773 l 0.10306,17.92552 c 0.11215,19.5058 0.0812,19.08237 1.6751,22.88798 1.47852,3.53 4.79174,7.468478 8.18923,9.734668 5.41321,3.61073 13.11132,4.13654 19.32336,1.31987 4.87855,-2.21204 9.16517,-6.43514 11.33237,-11.164468 1.74017,-3.7974 1.7435,-3.84196 1.7435,-23.22716 l -9e-4,-17.47641 h 1.98438 1.98437 v 27.91354 27.913538 h -1.979 -1.97901 l -0.0715,-5.4901 -0.0715,-5.490098 -0.83571,1.455198 c -2.10291,3.66175 -5.08082,6.44006 -8.95387,8.35369 -3.51375,1.7361 -5.84521,2.2618 -10.58334,2.38637 -3.27602,0.0861 -4.40084,0.0107 -6.44427,-0.43236 z m -119.99381,-0.15765 c -4.22256,-0.9055 -7.76176,-2.84783 -10.78203,-5.91721 -2.94571,-2.99363 -4.8918,-6.975178 -5.51445,-11.282268 -0.16327,-1.12946 -0.26424,-15.91847 -0.26749,-39.1865 l -0.005,-37.372398 h 1.97837 1.97837 l 0.0721,38.430728 0.0722,38.43073 0.72477,2.13741 c 2.18247,6.436308 7.92406,11.046948 14.52007,11.659978 l 1.82079,0.16922 v 1.6818 1.6818 l -1.38907,-0.0216 c -0.76398,-0.0119 -2.20776,-0.19713 -3.20839,-0.41171 z m -102.4265,-0.72864 c -8.06918,-1.33288 -15.06042,-5.11085 -19.70528,-10.648458 l -1.36213,-1.62394 -2.54424,0.90935 c -3.05376,1.091458 -3.90502,1.089308 -3.90502,-0.01 0,-0.72548 0.12572,-0.80572 2.70541,-1.72674 l 2.70541,-0.9659 -0.56332,-0.91909 c -0.82725,-1.34972 -2.06338,-5.14973 -2.24716,-6.90807 l -0.15985,-1.5293 -1.35253,-0.26602 c -0.7439,-0.14631 -1.82879,-0.34122 -2.41088,-0.43315 -1.72092,-0.27176 -2.76533,-0.71813 -2.93561,-1.25466 -0.36227,-1.14138 0.85157,-1.30883 4.11209,-0.56724 1.0392,0.23637 2.06283,0.36323 2.27472,0.28191 0.25642,-0.0984 0.38526,-0.53669 0.38526,-1.31065 0,-3.61131 1.90422,-8.21762 4.98293,-12.05378 1.04445,-1.3014 1.31993,-1.8817 1.60451,-3.37986 0.64067,-3.37289 2.22525,-11.45046 3.198,-16.30222 0.24105,-1.20226 0.94253,-2.0443 1.6988,-2.03917 0.33929,0.002 2.9661,2.10835 6.77201,5.42946 5.28126,4.60854 6.31733,5.4052 6.87917,5.28957 1.64101,-0.33773 8.20861,-0.44541 10.16381,-0.16665 1.64935,0.23515 2.19103,0.2276 2.55083,-0.0356 0.25125,-0.18376 3.09503,-2.62607 6.31952,-5.42734 3.22449,-2.80128 6.07222,-5.09323 6.32829,-5.09323 0.89032,0 1.38475,0.67054 1.75986,2.38673 0.20608,0.94287 1.04014,5.16712 1.85345,9.38723 0.81331,4.2201 1.53424,7.8627 1.60206,8.09466 0.0678,0.23196 0.78384,1.24399 1.59115,2.24896 2.40599,2.99505 4.85979,8.89881 4.87675,11.73331 0.008,1.36263 0.2073,1.41348 3.17066,0.80958 3.0303,-0.61753 3.91551,-0.60854 4.32387,0.0439 0.4717,0.75362 -0.21958,1.18064 -2.67274,1.65104 -1.27177,0.24386 -2.93738,0.566 -3.70136,0.71587 l -1.38907,0.27248 v 1.06753 c 0,1.58185 -0.70942,4.03643 -1.82358,6.30951 l -0.98711,2.01383 3.72046,1.30508 c 3.38297,1.18669 3.72044,1.36245 3.72044,1.93769 0,1.282968 -0.61732,1.262988 -4.72882,-0.153 l -3.86437,-1.33089 -0.63542,0.82251 c -4.07724,5.277608 -10.72825,9.268348 -18.42035,11.052558 -2.93098,0.67985 -10.78057,0.89571 -13.89062,0.38199 z m 12.96458,-1.87573 c 6.74617,-1.50628 11.37287,-3.94914 15.76774,-8.32524 3.79886,-3.782638 5.73201,-7.545558 6.32404,-12.309898 0.65178,-5.24504 -0.80179,-10.1154 -4.56189,-15.28506 l -1.34723,-1.85226 -0.87525,-4.66421 c -0.48139,-2.56532 -1.30929,-6.96452 -1.83977,-9.77601 l -0.96452,-5.11179 -0.69531,0.63229 c -4.43102,4.02943 -10.89126,9.72531 -11.41794,10.06701 -0.57439,0.37265 -0.92656,0.3935 -2.50248,0.14815 -1.84322,-0.28696 -9.94916,-0.16451 -11.25551,0.17003 -0.58685,0.15028 -1.42219,-0.49493 -6.86759,-5.30445 -5.27569,-4.65965 -6.22917,-5.40177 -6.39885,-4.98041 -0.15912,0.39515 -2.82518,14.04892 -3.53801,18.11928 -0.096,0.54796 -0.63777,1.52893 -1.27049,2.30025 -8.75176,10.66902 -5.58186,24.60624 7.36763,32.393458 3.02817,1.821 7.91602,3.49033 12.17475,4.15801 2.25664,0.35379 9.67684,0.11739 11.90068,-0.37915 z m -9.76585,-14.930188 c -1.84096,-1.84789 -2.56387,-2.74787 -2.44858,-3.04832 0.14411,-0.37556 0.78598,-0.41777 5.39182,-0.35455 4.79209,0.0658 5.23587,0.11149 5.31977,0.54803 0.10895,0.56687 -4.58117,5.47685 -5.2316,5.47685 -0.23058,0 -1.59472,-1.1799 -3.03141,-2.62201 z M 10.109527,82.767172 v -27.91354 h 1.97901 1.97901 l 0.0715,5.47809 0.0715,5.47808 1.05833,-1.83162 c 1.29077,-2.2339 4.9793,-6.00791 7.07014,-7.234 3.18225,-1.86609 6.25895,-2.80975 10.458081,-3.20762 3.43179,-0.32517 7.59114,0.0582 10.51761,0.96931 8.87361,2.76278 15.618261,10.88361 16.788142,20.2136 0.167558,1.3363 0.277485,8.89779 0.277485,19.08712 v 16.874118 h -1.9724 -1.972397 l -0.0931,-18.057808 c -0.10496,-20.36395 -0.0294,-19.53986 -2.18848,-23.87864 -2.87343,-5.7744 -8.30576,-10.23218 -13.88734,-11.39597 -2.462,-0.51334 -6.73733,-0.51161 -9.184781,0.004 -3.93277,0.82806 -7.87992,3.18089 -11.12903,6.6338 -3.08979,3.2836 -4.62247,6.15881 -5.4572,10.23739 -0.35494,1.73428 -0.41739,4.61395 -0.41739,19.24845 V 110.681 h -1.98437 -1.98438 z M 136.84495,64.246342 V 17.811968 h 1.98437 1.98438 v 28.045834 c 0,15.42521 0.0614,28.04583 0.13646,28.04583 0.075,0 5.03237,-4.28625 11.01626,-9.525 l 10.8798,-9.525 2.54364,0.009 c 2.43779,0.008 2.52113,0.0277 2.003,0.46302 -4.41129,3.70617 -24.72708,21.61351 -24.72708,21.79565 0,0.20118 22.89371,24.347338 30.00016,31.641368 l 1.86889,1.91823 h -2.67021 -2.67021 l -14.12421,-14.702018 -14.12421,-14.70184 -0.0684,14.70184 -0.0684,14.701828 h -1.98216 -1.98215 z m 186.79583,18.52083 v -27.91354 h 1.98438 1.98437 v 27.91354 27.913538 h -1.98437 -1.98438 z m 20.6375,0 v -27.91354 h 1.97901 1.979 l 0.0715,5.47809 0.0715,5.47808 1.05833,-1.83162 c 1.29077,-2.2339 4.9793,-6.00791 7.07014,-7.234 3.18225,-1.86609 6.25896,-2.80975 10.45808,-3.20762 3.43181,-0.32517 7.59113,0.0582 10.51761,0.96931 8.8736,2.76278 15.61825,10.88361 16.78813,20.2136 0.16756,1.3363 0.2775,8.89779 0.2775,19.08712 v 16.874118 h -1.97239 -1.97242 l -0.0931,-18.057808 c -0.10496,-20.36395 -0.0294,-19.53986 -2.18848,-23.87864 -2.87345,-5.7744 -8.30577,-10.23218 -13.88734,-11.39597 -2.462,-0.51334 -6.73735,-0.51161 -9.1848,0.004 -3.93277,0.82806 -7.8799,3.18089 -11.12901,6.6338 -3.0898,3.2836 -4.62248,6.15881 -5.45722,10.23739 -0.35493,1.73427 -0.41738,4.61394 -0.41738,19.24844 v 17.209068 h -1.98437 -1.98438 V 82.767452 Z m 123.44789,27.185938 c 0.26263,-0.40018 5.21417,-7.95796 11.00342,-16.795068 l 10.52589,-16.06746 -7.26882,-10.99593 c -3.99783,-6.04777 -7.26879,-11.05108 -7.26879,-11.11848 0,-0.0674 0.98628,-0.12254 2.19173,-0.12254 h 2.19175 l 6.18347,9.40738 6.1835,9.40738 2.6716,-4.04957 c 1.46939,-2.22726 4.25691,-6.46058 6.19446,-9.40738 l 3.52284,-5.35781 h 1.9848 1.9848 l -0.50911,0.7276 c -0.53438,0.76372 -13.31204,20.32962 -13.65028,20.90213 -0.12173,0.20602 4.04741,6.71741 11.05392,17.26407 l 11.24934,16.933278 -2.30401,-0.002 -2.30402,-0.002 -10.02893,-15.211498 c -5.5159,-8.36618 -10.05549,-15.21135 -10.08798,-15.21135 -0.0325,0 -4.55453,6.84609 -10.04903,15.21354 l -9.98998,15.213538 h -1.97903 -1.97903 z M 323.69703,40.696672 c -2.12053,-0.92132 -2.14323,-4.73987 -0.0347,-5.83024 1.31334,-0.67916 3.7583,-0.43026 4.66328,0.47473 0.82357,0.82355 1.11951,3.0731 0.54817,4.16664 -0.7338,1.40442 -3.31587,1.99741 -5.17679,1.18887 z"
       id="path24" />
  </g>
</svg>